Coordinates
version=1
nRows=21
nColumns=22
inDegrees=yes

Units are S.I. units (second, meters, Newtons, ...)
If the header above contains a line with 'inDegrees', this indicates whether rotational values are in degrees (yes) or radians (no).

endheader
time	pelvis_tilt	pelvis_list	pelvis_rotation	pelvis_tx	pelvis_ty	pelvis_tz	hip_flexion_r	hip_adduction_r	hip_rotation_r	knee_angle_r	ankle_angle_r	subtalar_angle_r	hip_flexion_l	hip_adduction_l	hip_rotation_l	knee_angle_l	ankle_angle_l	subtalar_angle_l	lumbar_extension	lumbar_bending	lumbar_rotation
      1.30000000	     -3.68506936	     -4.36935114	     -4.18432070	     -1.16876726	      0.95328291	     -0.04311768	      9.58934551	      3.41752269	     -0.77084418	    -18.68114721	     12.22847993	     -1.89108454	     12.14647400	     -7.01633852	     -7.17702582	    -26.05532014	     14.72422167	     -3.23933987	     -5.01445893	      3.30728552	      0.41854146
      1.31000000	     -3.66582763	     -4.44405559	     -4.19803790	     -1.16862999	      0.95312732	     -0.04371976	      9.53734104	      3.44944008	     -0.77594221	    -18.65380982	     12.28509642	     -1.84408795	     12.24103918	     -7.05813997	     -7.12439960	    -26.28624604	     14.81258852	     -3.29541084	     -5.10164299	      3.40975907	      0.45245352
      1.32000000	     -3.66756175	     -4.52465736	     -4.19582801	     -1.16843093	      0.95295822	     -0.04440505	      9.48411971	      3.48358300	     -0.79125079	    -18.58979300	     12.31420210	     -1.78404415	     12.34722792	     -7.09825944	     -7.05899417	    -26.49879087	     14.91813027	     -3.36442006	     -5.15570423	      3.52137702	      0.47477472
      1.33000000	     -3.69913083	     -4.59887631	     -4.17716761	     -1.16816669	      0.95277254	     -0.04518049	      9.45491052	      3.50337684	     -0.84118738	    -18.51695363	     12.30939461	     -1.65893378	     12.46862691	     -7.12106464	     -6.97323802	    -26.68041269	     14.99659956	     -3.45932603	     -5.16433567	      3.62896286	      0.48312299
      1.34000000	     -3.71361126	     -4.64075959	     -4.16753729	     -1.16785594	      0.95262510	     -0.04599696	      9.40978738	      3.49009503	     -0.83144043	    -18.45354111	     12.36327484	     -1.60332351	     12.54182050	     -7.10538677	     -6.91560428	    -26.81691848	     15.08808192	     -3.52181931	     -5.18995594	      3.69413538	      0.48095103
      1.35000000	     -3.74822254	     -4.68787236	     -4.13548294	     -1.16745804	      0.95248669	     -0.04692073	      9.36816065	      3.47262722	     -0.86331809	    -18.36817301	     12.36917374	     -1.50063279	     12.61363447	     -7.08381235	     -6.83919751	    -26.91352627	     15.17758725	     -3.60571664	     -5.18020175	      3.77116474	      0.46061265
      1.36000000	     -3.78847313	     -4.72852245	     -4.08407833	     -1.16702787	      0.95236574	     -0.04794317	      9.34138302	      3.43586284	     -0.93776918	    -18.30203182	     12.37682181	     -1.28224649	     12.67923250	     -7.04507087	     -6.74259192	    -26.98575915	     15.21927538	     -3.72047520	     -5.16328267	      3.84061403	      0.43469255
      1.37000000	     -3.82602288	     -4.74499364	     -4.03921091	     -1.16651734	      0.95228266	     -0.04902160	      9.29315265	      3.37264996	     -0.97650456	    -18.20949231	     12.38765178	     -1.10209800	     12.70421562	     -6.97659422	     -6.67452583	    -27.00133715	     15.28596645	     -3.79744442	     -5.14234986	      3.88081469	      0.41033651
      1.38000000	     -3.87265537	     -4.75552215	     -3.99223726	     -1.16593148	      0.95221387	     -0.05015761	      9.24529975	      3.30233244	     -1.00073821	    -18.10835690	     12.37560826	     -1.01239877	     12.70987291	     -6.90282241	     -6.63687916	    -26.97313510	     15.35316908	     -3.83713751	     -5.10398499	      3.91517828	      0.37053211
      1.39000000	     -3.90117186	     -4.77825848	     -3.90716515	     -1.16530145	      0.95217968	     -0.05143956	      9.17068815	      3.22324354	     -1.12392434	    -18.00080550	     12.39457719	     -0.69143178	     12.69783244	     -6.82372140	     -6.54623289	    -26.94235053	     15.38195115	     -3.91817547	     -5.09017605	      3.96730560	      0.31814442
      1.40000000	     -3.94978964	     -4.77440078	     -3.84583813	     -1.16465785	      0.95211686	     -0.05274714	      9.12235089	      3.12835930	     -1.14387510	    -17.90109214	     12.37370386	     -0.62164040	     12.68524703	     -6.71668557	     -6.47857582	    -26.88297161	     15.46921558	     -3.94784175	     -5.05731999	      3.98808526	      0.28598468
      1.41000000	     -3.96515479	     -4.77298302	     -3.72570388	     -1.16393314	      0.95209447	     -0.05422549	      9.03195875	      3.01131294	     -1.28452052	    -17.80238187	     12.39593017	     -0.43567983	     12.64004335	     -6.58973299	     -6.34795587	    -26.81908088	     15.51332174	     -3.99051580	     -5.05699799	      4.01317495	      0.22467245
      1.42000000	     -4.00240242	     -4.75670517	     -3.63163585	     -1.16320706	      0.95203173	     -0.05573065	      8.97808805	      2.88799526	     -1.33433308	    -17.72397925	     12.40090175	     -0.33064054	     12.60047938	     -6.45283211	     -6.26472619	    -26.73078707	     15.59340639	     -4.02741751	     -5.04091613	      4.02407800	      0.16912492
      1.43000000	     -4.00854996	     -4.73612302	     -3.50144347	     -1.16240068	      0.95199204	     -0.05738140	      8.90133616	      2.73883660	     -1.48149111	    -17.67334701	     12.46419528	     -0.16327662	     12.52721672	     -6.29346225	     -6.14090622	    -26.64097129	     15.62336382	     -4.07190294	     -5.05462478	      4.03354494	      0.10880320
      1.44000000	     -4.02019120	     -4.70087392	     -3.37339020	     -1.16159044	      0.95192060	     -0.05910005	      8.85791677	      2.57531152	     -1.57739400	    -17.67081366	     12.52337093	     -0.03368206	     12.45338740	     -6.11560538	     -6.02906025	    -26.54033049	     15.68481669	     -4.11926020	     -5.06943250	      4.02831745	      0.04161515
      1.45000000	     -4.02822779	     -4.65159941	     -3.23870309	     -1.16076866	      0.95181580	     -0.06090044	      8.84346746	      2.39257766	     -1.65991291	    -17.72707134	     12.58959968	      0.04294164	     12.38400406	     -5.91700891	     -5.90922122	    -26.45631512	     15.76675136	     -4.15883641	     -5.09266182	      4.00578447	     -0.00252701
      1.46000000	     -4.02083657	     -4.58851955	     -3.08455333	     -1.15990265	      0.95170557	     -0.06280851	      8.85621287	      2.18418484	     -1.76503318	    -17.86728967	     12.69570551	      0.15452949	     12.28590454	     -5.69473598	     -5.78590215	    -26.34763812	     15.81439782	     -4.20062678	     -5.13347990	      3.97333751	     -0.08746925
      1.47000000	     -4.00962977	     -4.50690120	     -2.93016717	     -1.15902480	      0.95155804	     -0.06478685	      8.91739602	      1.95209499	     -1.84292863	    -18.10111545	     12.80866653	      0.26236487	     12.18400040	     -5.44920617	     -5.66550654	    -26.24392400	     15.88808148	     -4.24106852	     -5.18319247	      3.91971179	     -0.15305227
      1.48000000	     -3.99163163	     -4.40508189	     -2.77268745	     -1.15813956	      0.95137841	     -0.06683570	      9.03484565	      1.69295906	     -1.90433016	    -18.44872773	     12.94217159	      0.37849213	     12.07334601	     -5.17889643	     -5.54990079	    -26.13846444	     15.95791790	     -4.27352383	     -5.24545440	      3.84351283	     -0.21834965
      1.49000000	     -3.96855132	     -4.27734042	     -2.61509481	     -1.15725038	      0.95116361	     -0.06894951	      9.22225538	      1.40137044	     -1.94366786	    -18.92968347	     13.09667634	      0.50191833	     11.95255105	     -4.87821620	     -5.44348882	    -26.02638737	     16.03041534	     -4.29705619	     -5.32066022	      3.74040723	     -0.28314410
      1.50000000	     -3.93811814	     -4.12652463	     -2.46059768	     -1.15634779	      0.95091527	     -0.07109895	      9.48749216	      1.08349611	     -1.95235808	    -19.56406542	     13.26156854	      0.62200891	     11.81884377	     -4.55377944	     -5.35244098	    -25.90974549	     16.10754081	     -4.30936478	     -5.40765048	      3.60978838	     -0.34830235
